<mxfile host="app.diagrams.net" modified="2023-07-05T18:55:18.698Z" agent="Mozilla/5.0 (Windows NT 10.0; Win64; x64) AppleWebKit/537.36 (KHTML, like Gecko) Chrome/114.0.0.0 Safari/537.36" etag="33TUW14ekxziUyEoe7p9" version="21.6.1" type="github">
  <diagram name="Page-1" id="fc2ac565-0d4e-3f0d-88b0-a54af1634ed7">
    <mxGraphModel dx="890" dy="647" grid="0" gridSize="10" guides="1" tooltips="1" connect="0" arrows="1" fold="1" page="1" pageScale="1.5" pageWidth="1169" pageHeight="827" background="none" math="0" shadow="0">
      <root>
        <mxCell id="0" style=";html=1;" />
        <mxCell id="1" style=";html=1;" parent="0" />
        <mxCell id="fhs7iBM8C1StkUZ6OH_4-101" value="" style="align=left;strokeColor=#CCCCCC;html=1;fillColor=none;shadow=0;" parent="1" vertex="1">
          <mxGeometry x="342" y="252" width="796" height="407" as="geometry" />
        </mxCell>
        <mxCell id="fhs7iBM8C1StkUZ6OH_4-118" value="&lt;font face=&quot;Times New Roman&quot;&gt;...&lt;/font&gt;" style="strokeWidth=1;fontStyle=0;html=1;fillColor=#E6E6E6;shadow=0;" parent="1" vertex="1">
          <mxGeometry x="724" y="232" width="143" height="20" as="geometry" />
        </mxCell>
        <mxCell id="fhs7iBM8C1StkUZ6OH_4-119" value="&lt;font face=&quot;Times New Roman&quot;&gt;...&lt;/font&gt;" style="strokeWidth=1;fontStyle=0;html=1;fillColor=#E6E6E6;shadow=0;" parent="1" vertex="1">
          <mxGeometry x="866" y="232" width="157" height="20" as="geometry" />
        </mxCell>
        <mxCell id="fhs7iBM8C1StkUZ6OH_4-120" value="&lt;font face=&quot;Times New Roman&quot;&gt;...&lt;/font&gt;" style="strokeWidth=1;fontStyle=0;html=1;fillColor=#E6E6E6;shadow=0;" parent="1" vertex="1">
          <mxGeometry x="1023" y="232" width="115" height="20" as="geometry" />
        </mxCell>
        <mxCell id="fhs7iBM8C1StkUZ6OH_4-121" value="&lt;font face=&quot;Times New Roman&quot;&gt;...&lt;/font&gt;" style="strokeWidth=1;fontStyle=0;html=1;fillColor=#E6E6E6;shadow=0;" parent="1" vertex="1">
          <mxGeometry x="342" y="232" width="126" height="20" as="geometry" />
        </mxCell>
        <mxCell id="fhs7iBM8C1StkUZ6OH_4-122" value="&lt;font face=&quot;Times New Roman&quot;&gt;...&lt;/font&gt;" style="strokeWidth=1;fontStyle=0;html=1;fillColor=#E6E6E6;shadow=0;" parent="1" vertex="1">
          <mxGeometry x="591" y="232" width="134" height="20" as="geometry" />
        </mxCell>
        <mxCell id="fhs7iBM8C1StkUZ6OH_4-123" value="&lt;font face=&quot;Times New Roman&quot;&gt;...&lt;/font&gt;" style="strokeWidth=1;fontStyle=0;html=1;fillColor=#E6E6E6;shadow=0;" parent="1" vertex="1">
          <mxGeometry x="469.5" y="232" width="121.5" height="20" as="geometry" />
        </mxCell>
        <mxCell id="8DOTH0WtCYSmB3aHO4C8-9" style="edgeStyle=orthogonalEdgeStyle;rounded=0;orthogonalLoop=1;jettySize=auto;html=1;" edge="1" parent="1" source="fhs7iBM8C1StkUZ6OH_4-124" target="fhs7iBM8C1StkUZ6OH_4-130">
          <mxGeometry relative="1" as="geometry" />
        </mxCell>
        <mxCell id="fhs7iBM8C1StkUZ6OH_4-124" value="&lt;b&gt;&lt;font face=&quot;Times New Roman&quot;&gt;Problem Definition&lt;br&gt;&lt;/font&gt;&lt;/b&gt;" style="whiteSpace=wrap;html=1;strokeWidth=2;fillColor=#E6E6E6;gradientColor=none;fontSize=14;align=center;strokeColor=#999999;shadow=1;" parent="1" vertex="1">
          <mxGeometry x="356" y="262" width="74" height="48" as="geometry" />
        </mxCell>
        <mxCell id="8DOTH0WtCYSmB3aHO4C8-5" style="edgeStyle=orthogonalEdgeStyle;rounded=0;orthogonalLoop=1;jettySize=auto;html=1;entryX=0.007;entryY=0.667;entryDx=0;entryDy=0;entryPerimeter=0;" edge="1" parent="1" source="fhs7iBM8C1StkUZ6OH_4-125" target="fhs7iBM8C1StkUZ6OH_4-126">
          <mxGeometry relative="1" as="geometry">
            <Array as="points">
              <mxPoint x="627" y="470" />
            </Array>
          </mxGeometry>
        </mxCell>
        <mxCell id="fhs7iBM8C1StkUZ6OH_4-125" value="&lt;b&gt;&lt;font face=&quot;Times New Roman&quot;&gt;Background Research&lt;/font&gt;&lt;/b&gt;" style="whiteSpace=wrap;html=1;strokeWidth=2;fillColor=#E6E6E6;gradientColor=none;fontSize=14;align=center;strokeColor=#999999;shadow=1;" parent="1" vertex="1">
          <mxGeometry x="550.5" y="389" width="196.5" height="29" as="geometry" />
        </mxCell>
        <mxCell id="fhs7iBM8C1StkUZ6OH_4-162" style="edgeStyle=orthogonalEdgeStyle;rounded=0;orthogonalLoop=1;jettySize=auto;html=1;" parent="1" source="fhs7iBM8C1StkUZ6OH_4-126" target="fhs7iBM8C1StkUZ6OH_4-127" edge="1">
          <mxGeometry relative="1" as="geometry">
            <Array as="points">
              <mxPoint x="697" y="503" />
            </Array>
          </mxGeometry>
        </mxCell>
        <mxCell id="fhs7iBM8C1StkUZ6OH_4-126" value="&lt;b&gt;&lt;font face=&quot;Times New Roman&quot;&gt;Methodology&lt;/font&gt;&lt;/b&gt;" style="whiteSpace=wrap;html=1;strokeWidth=2;fillColor=#E6E6E6;gradientColor=none;fontSize=14;align=center;strokeColor=#999999;shadow=1;" parent="1" vertex="1">
          <mxGeometry x="661" y="443" width="89" height="42" as="geometry" />
        </mxCell>
        <mxCell id="8DOTH0WtCYSmB3aHO4C8-2" style="edgeStyle=orthogonalEdgeStyle;rounded=0;orthogonalLoop=1;jettySize=auto;html=1;" edge="1" parent="1" source="fhs7iBM8C1StkUZ6OH_4-127" target="fhs7iBM8C1StkUZ6OH_4-128">
          <mxGeometry relative="1" as="geometry">
            <Array as="points">
              <mxPoint x="894" y="550" />
            </Array>
          </mxGeometry>
        </mxCell>
        <mxCell id="fhs7iBM8C1StkUZ6OH_4-127" value="&lt;b&gt;&lt;font face=&quot;Times New Roman&quot;&gt;Implementation&lt;/font&gt;&lt;/b&gt;" style="whiteSpace=wrap;html=1;strokeWidth=2;fillColor=#E6E6E6;gradientColor=none;fontSize=14;align=center;strokeColor=#999999;shadow=1;" parent="1" vertex="1">
          <mxGeometry x="800" y="481" width="230" height="38" as="geometry" />
        </mxCell>
        <mxCell id="fhs7iBM8C1StkUZ6OH_4-128" value="&lt;b&gt;&lt;font face=&quot;Times New Roman&quot;&gt;Result and &lt;br&gt;Evaluation&lt;/font&gt;&lt;/b&gt;" style="whiteSpace=wrap;html=1;strokeWidth=2;fillColor=#E6E6E6;gradientColor=none;fontSize=14;align=center;strokeColor=#999999;shadow=1;" parent="1" vertex="1">
          <mxGeometry x="1039.5" y="521" width="82" height="50" as="geometry" />
        </mxCell>
        <mxCell id="8DOTH0WtCYSmB3aHO4C8-4" style="edgeStyle=orthogonalEdgeStyle;rounded=0;orthogonalLoop=1;jettySize=auto;html=1;" edge="1" parent="1" source="fhs7iBM8C1StkUZ6OH_4-130" target="fhs7iBM8C1StkUZ6OH_4-125">
          <mxGeometry relative="1" as="geometry" />
        </mxCell>
        <mxCell id="fhs7iBM8C1StkUZ6OH_4-130" value="&lt;b&gt;&lt;font face=&quot;Times New Roman&quot;&gt;Data &lt;br&gt;Collection&lt;/font&gt;&lt;/b&gt;" style="whiteSpace=wrap;html=1;strokeWidth=2;fillColor=#E6E6E6;gradientColor=none;fontSize=14;align=center;strokeColor=#999999;shadow=1;" parent="1" vertex="1">
          <mxGeometry x="454" y="319" width="88.5" height="41" as="geometry" />
        </mxCell>
        <mxCell id="fhs7iBM8C1StkUZ6OH_4-155" value="" style="shape=flexArrow;endArrow=classic;html=1;rounded=0;width=35.294117647058826;endSize=3.7058823529411766;" parent="1" edge="1">
          <mxGeometry x="0.0014" width="50" height="50" relative="1" as="geometry">
            <mxPoint x="385.5" y="712" as="sourcePoint" />
            <mxPoint x="1094.5" y="715" as="targetPoint" />
            <mxPoint as="offset" />
          </mxGeometry>
        </mxCell>
        <mxCell id="fhs7iBM8C1StkUZ6OH_4-156" value="&lt;h3&gt;&lt;b&gt;&lt;font face=&quot;Times New Roman&quot;&gt;Wafterfall Approach&lt;/font&gt;&lt;/b&gt;&lt;/h3&gt;" style="rounded=1;whiteSpace=wrap;html=1;" parent="1" vertex="1">
          <mxGeometry x="360" y="598" width="763" height="24" as="geometry" />
        </mxCell>
        <mxCell id="fhs7iBM8C1StkUZ6OH_4-157" value="&lt;h3&gt;&lt;b&gt;&lt;font face=&quot;Times New Roman&quot;&gt;Communication&amp;nbsp;&lt;/font&gt;&lt;/b&gt;&lt;/h3&gt;" style="rounded=1;whiteSpace=wrap;html=1;" parent="1" vertex="1">
          <mxGeometry x="360" y="632" width="763" height="24" as="geometry" />
        </mxCell>
        <mxCell id="fhs7iBM8C1StkUZ6OH_4-165" value="&lt;pre&gt;&lt;font size=&quot;1&quot; face=&quot;Times New Roman&quot; style=&quot;&quot;&gt;&lt;b style=&quot;font-size: 29px;&quot;&gt;Time&lt;/b&gt;&lt;/font&gt;&lt;/pre&gt;" style="text;html=1;align=center;verticalAlign=middle;resizable=0;points=[];autosize=1;strokeColor=none;fillColor=none;" parent="1" vertex="1">
          <mxGeometry x="701.5" y="644" width="82" height="71" as="geometry" />
        </mxCell>
      </root>
    </mxGraphModel>
  </diagram>
</mxfile>
